<?xml version="1.0" encoding="UTF-8" standalone="no"?><!DOCTYPE svg PUBLIC "-//W3C//DTD SVG 1.1//EN" "http://www.w3.org/Graphics/SVG/1.1/DTD/svg11.dtd">
<svg width="100%" height="100%" viewBox="0 0 800 800" version="1.1"
  xmlns="http://www.w3.org/2000/svg"
  xmlns:xlink="http://www.w3.org/1999/xlink" xml:space="preserve"
  xmlns:serif="http://www.serif.com/" style="fill-rule:evenodd;clip-rule:evenodd;stroke-linejoin:round;stroke-miterlimit:2;" fill="#451a03">
  <path d="M675.209,458.822c0,-37.914 -31.041,-72.212 -81.098,-96.99c1.218,25.506 3.258,53.686 6.542,85.402l0.278,2.901l-1.245,2.622c-1.298,2.688 -33.702,66.412 -201.513,66.412c-5.721,-0 -10.343,-4.635 -10.343,-10.343c-0,-0.291 0.159,-0.569 0.185,-0.847c0.451,-5.244 4.675,-9.389 10.012,-9.469c0.053,0 0.106,-0.026 0.159,-0.026c7.561,-0 14.712,-0.186 21.691,-0.424c117.754,-4.264 152.927,-42.734 159.826,-52.242c-3.536,-34.895 -5.668,-65.803 -6.767,-93.361c-4.794,-121.753 11.097,-177.081 20.473,-209.645c8.303,-28.776 9.575,-33.199 -10.342,-53.143c-37.901,-37.887 -119.383,-48.759 -163.15,-51.871c-7.283,-0.53 -13.494,-0.821 -18.301,-1.007c-6.304,-0.238 -10.184,-0.251 -10.82,-0.265l0,0.067c-48.031,-0.411 -142.756,4.383 -184.126,45.753c-50.891,50.892 17.348,38.086 6.781,276.07c-54.415,25.029 -88.66,60.691 -88.66,100.406c-0,75.562 123.223,136.823 275.222,136.823c151.973,0.013 275.196,-61.261 275.196,-136.823Zm-453.972,-320.963c2.424,-5.178 8.568,-7.416 13.773,-4.966c0.37,0.172 9.15,4.185 24.26,9.363c27.426,9.402 75.841,22.618 133.526,23.929c8.82,0.186 17.878,0.106 27.081,-0.318c35.808,-1.642 74.225,-8.422 112.815,-23.598c7.257,-2.847 14.474,-5.88 21.691,-9.336c5.151,-2.516 11.323,-0.291 13.799,4.873c2.463,5.165 0.278,11.323 -4.873,13.799c-49.223,23.572 -98.46,33.385 -143.445,35.477c-6.423,0.305 -12.753,0.45 -18.99,0.45c-2.635,0 -5.178,-0.105 -7.747,-0.172c-92.924,-1.734 -162.488,-33.636 -166.937,-35.728c-5.151,-2.45 -7.376,-8.595 -4.953,-13.773Z" style="fill-rule:nonzero;"/>
  <path d="M461.82,763.474c-11.448,-0 -22.61,-1.718 -33.486,-5.152c-10.875,-3.434 -24.9,-8.586 -42.072,-15.455c-25.186,-11.448 -45.22,-17.172 -60.103,-17.172c-9.731,-0 -17.888,1.717 -24.471,5.151c-6.582,3.435 -13.022,8.014 -19.319,13.738c-8.013,8.014 -16.027,12.021 -24.041,12.021c-5.724,-0 -10.876,-2.004 -15.455,-6.011c-4.579,-4.006 -6.869,-10.589 -6.869,-19.748c0,-13.165 4.579,-26.044 13.738,-38.638c9.159,-12.593 21.465,-22.753 36.921,-30.48c15.455,-7.728 31.768,-11.592 48.941,-11.592c12.02,0 23.182,1.574 33.486,4.723c10.303,3.148 24.327,8.156 42.072,15.025c12.593,5.725 23.469,10.018 32.627,12.88c9.159,2.862 18.031,4.293 26.618,4.293c20.034,-0 36.92,-9.159 50.658,-27.476c5.152,-7.441 10.876,-11.162 17.172,-11.162c6.297,0 12.164,2.862 17.602,8.586c5.438,5.724 8.157,13.166 8.157,22.324c-0,13.738 -4.866,27.19 -14.597,40.355c-9.731,13.166 -22.467,23.755 -38.208,31.769c-15.741,8.014 -32.198,12.021 -49.371,12.021Z" style="fill-rule:nonzero;"/>
</svg>